<svg width="113" height="113" viewBox="0 0 113 113" fill="none" xmlns="http://www.w3.org/2000/svg">
<path d="M96.1632 56.2491C110.607 35.9698 117.972 15.0109 107.73 4.76866C97.4874 -5.47352 76.5284 1.89171 56.2491 16.3351C35.9698 1.89171 15.0109 -5.47352 4.76866 4.76866C-5.47352 15.0109 1.89171 35.9698 16.3351 56.2491C1.89171 76.5284 -5.47352 97.4874 4.76866 107.73C8.06749 111.028 12.4737 112.499 17.6066 112.499C28.4347 112.499 42.4972 105.954 56.2784 96.1632C70.0011 105.954 84.0636 112.499 94.921 112.499C100.054 112.499 104.466 111.023 107.759 107.73C117.972 97.4874 110.607 76.5284 96.1632 56.2491ZM101.103 11.3956C105.579 15.8722 102.556 30.38 90.2511 48.4737C86.3584 43.6549 82.2139 39.045 77.8351 34.6632C73.4528 30.2903 68.8429 26.1518 64.0245 22.2648C82.1183 9.96007 96.6261 6.9132 101.103 11.3956ZM84.5441 56.2491C80.3978 61.4942 75.9447 66.4893 71.2081 71.2081C66.4893 75.9447 61.4942 80.3978 56.2491 84.5441C51.004 80.3978 46.009 75.9447 41.2901 71.2081C36.5536 66.4893 32.1005 61.4942 27.9542 56.2491C36.2728 45.7665 45.7665 36.2728 56.2491 27.9542C61.4942 32.1005 66.4893 36.5536 71.2081 41.2901C75.9447 46.009 80.3978 51.004 84.5441 56.2491ZM11.3956 11.3956C12.6847 10.1007 14.8116 9.43273 17.6183 9.43273C24.5441 9.43273 35.6007 13.4757 48.4679 22.2648C43.654 26.1549 39.0462 30.2934 34.6632 34.6632C30.2903 39.0454 26.1518 43.6553 22.2648 48.4737C9.96007 30.38 6.91905 15.8722 11.3956 11.3956ZM11.3956 101.103C6.91905 96.6261 9.96007 82.1183 22.2648 64.0245C26.1575 68.8434 30.3019 73.4533 34.6808 77.8351C39.0601 82.2045 43.664 86.3429 48.4737 90.2335C30.38 102.538 15.8722 105.585 11.3956 101.103ZM101.103 101.103C96.6261 105.585 82.1183 102.556 64.0245 90.2511C68.8407 86.3552 73.4504 82.2109 77.8351 77.8351C82.2079 73.4528 86.3465 68.8429 90.2335 64.0245C102.538 82.1183 105.579 96.6261 101.103 101.103ZM63.2804 56.2491C63.2804 57.6398 62.868 58.9992 62.0954 60.1555C61.3228 61.3118 60.2247 62.213 58.9399 62.7452C57.6551 63.2773 56.2413 63.4166 54.8774 63.1453C53.5135 62.874 52.2606 62.2043 51.2773 61.221C50.2939 60.2376 49.6243 58.9848 49.353 57.6209C49.0817 56.2569 49.2209 54.8432 49.7531 53.5584C50.2853 52.2736 51.1865 51.1755 52.3428 50.4029C53.4991 49.6303 54.8585 49.2179 56.2491 49.2179C58.1139 49.2179 59.9024 49.9587 61.221 51.2773C62.5396 52.5959 63.2804 54.3843 63.2804 56.2491Z" fill="#F0F0F0"/>
</svg>
