<svg width="98" height="76" viewBox="0 0 98 76" fill="none" xmlns="http://www.w3.org/2000/svg">
<path d="M97.3577 25.8695L87.5871 3.81868C87.2272 3.00706 86.729 2.28338 86.1211 1.68895C85.5132 1.09451 84.8074 0.640979 84.0441 0.354243C83.2808 0.067507 82.4749 -0.0468148 81.6724 0.0178069C80.87 0.0824286 80.0866 0.324729 79.3671 0.730868L69.8455 6.09891L49.7875 0.113306C49.2729 -0.0377687 48.7325 -0.0377687 48.2178 0.113306L28.1599 6.09891L18.6382 0.730868C17.9187 0.324729 17.1354 0.0824286 16.3329 0.0178069C15.5304 -0.0468148 14.7245 0.067507 13.9612 0.354243C13.1979 0.640979 12.4921 1.09451 11.8842 1.68895C11.2763 2.28338 10.7782 3.00706 10.4182 3.81868L0.6477 25.8652C0.287645 26.6768 0.0728398 27.5604 0.0155508 28.4655C-0.0417382 29.3707 0.0596113 30.2798 0.313811 31.1408C0.568012 32.0018 0.970083 32.7979 1.49707 33.4836C2.02405 34.1694 2.66562 34.7313 3.38514 35.1373L13.7223 40.9717L34.9671 58.0864C35.2801 58.3376 35.632 58.5207 36.0046 58.6262L60.5076 65.536C61.0207 65.6812 61.5584 65.6739 62.0684 65.515C62.5783 65.356 63.043 65.0508 63.4173 64.6291L84.5013 40.8422L94.6164 35.1373C96.0685 34.3173 97.1726 32.8805 97.6859 31.1426C98.1992 29.4047 98.0798 27.5081 97.3538 25.8695H97.3577ZM76.3426 40.2807L63.1684 28.3786C62.5782 27.8455 61.8341 27.5774 61.0792 27.6261C60.3243 27.6747 59.612 28.0366 59.0795 28.6421C52.2608 36.3897 44.6611 35.4093 39.8141 31.9544L56.3689 13.8163H68.5476L78.9651 37.3139L76.3426 40.2807ZM15.8969 6.90649L23.734 11.3201L13.9444 33.3666L6.12257 28.9573L15.8969 6.90649ZM60.3085 58.3541L38.0606 52.0835L19.224 36.9079L29.944 12.7237L49.0027 7.02741L52.7547 8.14593L35.5261 27.0096L35.4954 27.0485C34.8469 27.78 34.3523 28.6665 34.048 29.6425C33.7438 30.6185 33.6378 31.6591 33.7377 32.6875C33.8377 33.7159 34.1411 34.7059 34.6255 35.5843C35.11 36.4628 35.7632 37.2073 36.5368 37.763C44.4084 43.4333 53.9071 42.5135 61.3881 35.6037L71.9742 45.1953L60.3085 58.3541ZM84.0457 33.3623L74.2751 11.3374L82.1084 6.90649L91.8828 28.9573L84.0457 33.3623ZM50.4499 73.3829C50.2844 74.1296 49.9026 74.7926 49.3651 75.2667C48.8276 75.7409 48.1651 75.9989 47.4827 76C47.2311 75.9996 46.9804 75.9648 46.7362 75.8964L30.7825 71.3964C30.4093 71.2925 30.0572 71.1093 29.7449 70.8565L19.6566 62.7289C19.0363 62.1795 18.6278 61.3814 18.5161 60.5008C18.4044 59.6202 18.5982 58.7249 19.057 58.0014C19.5159 57.2778 20.2045 56.7819 20.9794 56.6167C21.7544 56.4515 22.5559 56.6299 23.2172 57.1147L32.8308 64.8623L48.237 69.1982C49.0249 69.4205 49.7022 69.9867 50.1201 70.7723C50.5379 71.5578 50.6621 72.4984 50.4652 73.3872L50.4499 73.3829Z" fill="white"/>
</svg>
